<?xml version="1.0" encoding="utf-8"?>
<!DOCTYPE svg PUBLIC "-//W3C//DTD SVG 20010904//EN" "http://www.w3.org/TR/2001/REC-SVG-20010904/DTD/svg10.dtd">
<svg height="1024.000000pt" preserveAspectRatio="xMidYMid meet" version="1.0" viewBox="0 0 1024.000000 1024.000000" width="1024.000000pt" xmlns="http://www.w3.org/2000/svg">
<g fill="red" stroke="none" transform="translate(0.000000,1024.000000) scale(0.100000,-0.100000)">
<path d="M4717 9529 c-354 -34 -757 -122 -1070 -233 -662 -236 -1187 -566 -1678 -1056 -355 -355 -606 -702 -819 -1135 -321 -654 -475 -1358 -457 -2100 20 -851 291 -1681 784 -2404 312 -457 741 -878 1198 -1173 599 -386 1227 -618 1920 -709 207 -26 646 -37 860 -20 589 47 1099 188 1625 451 439 219 792 472 1126 805 358 357 605 684 831 1100 264 484 419 985 495 1595 21 166 17 806 -5 990 -73 595 -232 1102 -500 1595 -346 637 -822 1156 -1429 1559 -654 433 -1298 659 -2078 731 -179 16 -650 19 -803 4z m798 -1459 c885 -79 1319 -317 1512 -829 36 -97 80 -288 105 -456 19 -130 22 -193 23 -470 0 -321 -5 -409 -46 -722 -51 -399 -169 -916 -287 -1263 -55 -162 -147 -372 -178 -408 l-32 -37 -1423 -2 c-1332 -2 -1426 -1 -1460 15 -49 23 -452 481 -606 688 -252 338 -445 745 -513 1081 -53 263 -31 541 56 719 94 192 305 301 503 260 181 -38 279 -149 322 -365 10 -53 37 -206 59 -341 52 -314 105 -550 138 -620 45 -93 132 -117 196 -54 49 49 45 104 -34 444 -17 74 -51 257 -76 405 -51 306 -78 399 -148 503 -80 121 -182 198 -320 242 l-68 23 4 136 c6 145 25 241 74 361 57 143 190 303 324 391 244 161 656 274 1130 308 145 11 584 6 745 -9z m860 -4463 c287 -3 291 -4 323 -67 15 -31 17 -81 20 -488 2 -264 -1 -479 -6 -515 -32 -201 -154 -325 -352 -356 -42 -7 -463 -11 -1210 -11 -1237 0 -1217 0 -1335 54 -102 47 -175 140 -206 266 -21 84 -20 1022 1 1065 32 65 -47 61 1291 58 668 -2 1331 -4 1474 -6z"/>
<path d="M4925 3163 c-89 -20 -150 -66 -188 -137 -30 -59 -30 -173 1 -241 29 -64 55 -91 117 -123 l50 -27 575 0 c637 0 606 -3 685 66 55 49 85 119 84 199 0 114 -43 190 -132 238 l-52 27 -560 2 c-308 0 -569 -1 -580 -4z"/>
</g>
</svg>